<?xml version="1.0" encoding="utf-8"?>
<!-- Generator: Adobe Illustrator 21.0.0, SVG Export Plug-In . SVG Version: 6.00 Build 0)  -->
<svg version="1.1" id="Layer_1" xmlns="http://www.w3.org/2000/svg" xmlns:xlink="http://www.w3.org/1999/xlink" x="0px" y="0px"
	 viewBox="0 0 512 512" style="enable-background:new 0 0 512 512;" xml:space="preserve">
<g>
	<path d="M240,496V272H16c-8.8,0-16-7.2-16-16v208c0,26.5,21.5,48,48,48h208C247.2,512,240,504.8,240,496z"/>
	<path d="M16,240h224V16c0-8.8,7.2-16,16-16H48C21.5,0,0,21.5,0,48v208C0,247.2,7.2,240,16,240z"/>
	<path d="M496,272H272v224c0,8.8-7.2,16-16,16h208c26.5,0,48-21.5,48-48V256C512,264.8,504.8,272,496,272z"/>
	<path d="M464,0H256c8.8,0,16,7.2,16,16v224h224c8.8,0,16,7.2,16,16V48C512,21.5,490.5,0,464,0z"/>
</g>
</svg>
