<svg id="5ee81c28-661c-4b4f-8fd4-e6933dabadf6" data-name="Capa 1" xmlns="http://www.w3.org/2000/svg" viewBox="0 0 612 612"><title>comment_empty</title><g id="1009123a-7c7e-435c-94e3-f3b2447c12da" data-name="2"><path d="M306,0C137,0,0,119.88,0,267.75,0,352.26,44.85,427.5,114.75,476.58V612l134-81.34A350.91,350.91,0,0,0,306,535.5c169,0,306-119.87,306-267.75S475,0,306,0Zm0,497.25a309.49,309.49,0,0,1-64.64-7l-90,54.12,1.21-88.7c-69-41.52-114.27-110.14-114.27-187.9C38.25,141,158.13,38.25,306,38.25S573.75,141,573.75,267.75,453.88,497.25,306,497.25Z"/></g></svg>