<svg id="fd0b414d-737b-418b-bf17-a4fda8a88042" data-name="Capa 1" xmlns="http://www.w3.org/2000/svg" viewBox="0 0 339.35 269.47"><defs><style>.\30 e665e6b-087c-4609-b5bb-b03726bcae33{stroke:#000;stroke-miterlimit:10;stroke-width:0.75px;}</style></defs><title>details</title><path class="0e665e6b-087c-4609-b5bb-b03726bcae33" d="M91.61,100.76c68.85.42,280.94,1.72,294.81-5,.67-.32,3.91-2.12,7.26,0s5,6.93,5.55,8.51c.32.92,4.91,14.39,0,25.52-3.36,7.61-10.05,8.29-12.82,8.51-41.3,3.28-284.34,2.07-297.38,4.25-4.18.7-6.35.47-10.68,0-6.12-.66-9.23-1.05-11.54-4.25-3.76-5.22-4.64-14.87-3.42-22,.33-1.92,1.16-6.5,3.85-9.92,1.6-2,3.18-2.64,5.55-3.54a22.39,22.39,0,0,1,7.69-1.42C84.21,101.32,87.91,100.74,91.61,100.76Z" transform="translate(-62.52 -94.41)"/><path class="0e665e6b-087c-4609-b5bb-b03726bcae33" d="M95,206.39c67.18.42,274.11,1.72,287.65-5a6.85,6.85,0,0,1,7.09,0c3.23,2.1,4.88,6.93,5.42,8.51.32.92,4.79,14.39,0,25.52-3.27,7.61-9.81,8.29-12.51,8.51-40.29,3.28-277.43,2.07-290.15,4.25-4.08.7-6.19.47-10.42,0-6-.66-9-1.05-11.26-4.25-3.67-5.22-4.53-14.87-3.34-22,.32-1.92,1.13-6.5,3.75-9.92,1.56-2,3.1-2.64,5.42-3.54a21.37,21.37,0,0,1,7.5-1.42C87.8,206.95,91.41,206.37,95,206.39Z" transform="translate(-62.52 -94.41)"/><path class="0e665e6b-087c-4609-b5bb-b03726bcae33" d="M99.14,321.23c67.18.42,274.11,1.72,287.65-5a6.85,6.85,0,0,1,7.09,0c3.23,2.1,4.88,6.93,5.42,8.51.32.92,4.79,14.39,0,25.52-3.27,7.61-9.81,8.29-12.51,8.51-40.29,3.28-277.43,2.07-290.15,4.25-4.08.7-6.19.47-10.42,0-6-.66-9-1.05-11.26-4.25-3.67-5.22-4.53-14.87-3.34-22,.32-1.92,1.13-6.5,3.75-9.92,1.56-2,3.1-2.64,5.42-3.54a21.37,21.37,0,0,1,7.5-1.42C91.92,321.79,95.53,321.21,99.14,321.23Z" transform="translate(-62.52 -94.41)"/></svg>