<svg id="Capa_1" data-name="Capa 1" xmlns="http://www.w3.org/2000/svg" viewBox="0 0 512 512"><defs><style>.cls-1,.cls-2,.cls-3,.cls-4,.cls-5{fill:none;}.cls-2,.cls-3,.cls-4,.cls-5{stroke:#000;stroke-miterlimit:10;}.cls-2{stroke-width:18px;}.cls-3{stroke-width:3px;}.cls-4{stroke-width:32px;}.cls-5{stroke-width:31px;}</style></defs><title>follow_trend</title><path d="M247.33,0c-141.48,0-256,114.5-256,256s114.5,256,256,256,256-114.5,256-256S388.83,0,247.33,0Zm0,481.88C122.78,481.88,21.45,380.55,21.45,256S122.78,30.12,247.33,30.12,473.21,131.45,473.21,256,371.88,481.88,247.33,481.88Z" transform="translate(8.67 0)"/><line class="cls-1" x1="70.07" y1="337.18" x2="250.54" y2="213.82"/><path class="cls-2" d="M72.66,329.49" transform="translate(8.67 0)"/><path class="cls-3" d="M433,247" transform="translate(8.67 0)"/><polyline class="cls-4" points="63 335.67 243 193.67 247.67 193.67 247.67 272.33 256 276.33 397.67 165"/><polyline class="cls-5" points="301.67 153 410.34 153 391.67 257.67"/></svg>