<?xml version="1.0" encoding="utf-8"?>
<!-- Generator: Adobe Illustrator 21.0.0, SVG Export Plug-In . SVG Version: 6.00 Build 0)  -->
<svg version="1.1" id="Capa_1" xmlns="http://www.w3.org/2000/svg" xmlns:xlink="http://www.w3.org/1999/xlink" x="0px" y="0px"
	 viewBox="0 0 512 512" style="enable-background:new 0 0 512 512;" xml:space="preserve">
<style type="text/css">
	.st0{fill:none;stroke:#000000;stroke-width:18;stroke-miterlimit:10;}
	.st1{fill:none;stroke:#000000;stroke-width:3;stroke-miterlimit:10;}
	.st2{stroke:#000000;stroke-width:4;stroke-miterlimit:10;}
</style>
<title>follow_trend1</title>
<path d="M256,0C114.5,0,0,114.5,0,256s114.5,256,256,256s256-114.5,256-256S397.5,0,256,0z M256,481.9
	C131.4,481.9,30.1,380.5,30.1,256S131.4,30.1,256,30.1S481.9,131.4,481.9,256S380.6,481.9,256,481.9z"/>
<path class="st0" d="M72.3,329.5"/>
<path class="st1" d="M432.7,247"/>
<polygon class="st2" points="65.4,339 234.6,186.9 263,186.9 263,243.9 359,158.4 305,172.9 299.7,146.7 409,121.9 404,227.9 
	374,227.9 373,186.9 258,291 237.2,291 234.6,230.4 81,356.9 "/>
</svg>
