<?xml version="1.0" standalone="no"?>
<!DOCTYPE svg PUBLIC "-//W3C//DTD SVG 20010904//EN"
 "http://www.w3.org/TR/2001/REC-SVG-20010904/DTD/svg10.dtd">
<svg version="1.0" xmlns="http://www.w3.org/2000/svg"
 width="1000.000000pt" height="1000.000000pt" viewBox="0 0 1000.000000 1000.000000"
 preserveAspectRatio="xMidYMid meet">

<g transform="translate(0.000000,1000.000000) scale(0.100000,-0.100000)"
fill="#000000" stroke="none">
<path d="M2822 7910 c-218 -57 -375 -224 -416 -439 -14 -72 -16 -225 -16
-1182 l0 -1098 -45 -31 c-25 -18 -137 -81 -248 -142 -342 -186 -403 -235 -475
-383 -75 -153 -73 -334 5 -490 28 -55 105 -150 151 -184 156 -117 321 -148
519 -97 l92 24 3 -742 c4 -813 1 -774 65 -899 46 -91 169 -200 277 -247 100
-43 316 -43 429 0 174 66 311 248 338 447 7 51 9 424 7 1071 l-3 993 75 46
c130 80 467 271 680 385 113 61 266 145 340 188 305 175 335 182 455 116 39
-21 214 -117 390 -213 176 -96 406 -223 510 -282 105 -59 238 -133 298 -165
l107 -57 1 -67 c1 -37 4 -524 8 -1082 l6 -1015 43 -88 c75 -153 210 -264 360
-296 65 -14 187 -14 267 -1 148 24 295 137 368 283 65 130 66 147 67 925 0
591 2 692 14 692 8 0 54 -9 103 -21 253 -61 489 39 626 263 124 204 100 451
-61 633 -60 68 -154 129 -431 282 -146 80 -527 291 -846 468 -319 177 -872
483 -1230 680 -357 196 -666 366 -685 377 l-35 19 -220 -119 c-121 -66 -398
-218 -615 -339 -354 -197 -557 -303 -581 -303 -4 0 -9 372 -11 828 l-3 827
-26 66 c-38 99 -76 157 -143 224 -73 72 -157 118 -262 145 -95 25 -158 25
-252 0z"/>
<path d="M6760 7896 c-142 -50 -234 -119 -308 -231 -59 -87 -71 -124 -83 -255
-10 -113 -12 -792 -2 -1047 l6 -180 121 -63 c67 -35 256 -138 421 -230 313
-174 548 -300 559 -300 4 0 5 417 4 928 -4 1032 0 966 -74 1114 -112 222 -414
346 -644 264z"/>
<path d="M4479 4163 l-37 -4 -6 -70 c-4 -39 -4 -138 0 -220 l7 -149 218 0 219
0 0 225 0 225 -182 -2 c-101 -1 -199 -3 -219 -5z"/>
<path d="M5043 4163 l-53 -4 0 -220 0 -219 220 0 220 0 0 225 0 225 -167 -2
c-93 -1 -192 -3 -220 -5z"/>
<path d="M4451 3611 c-11 -7 -15 -53 -19 -220 l-5 -211 226 0 225 0 4 181 c2
100 2 199 0 220 l-4 39 -207 0 c-113 0 -212 -4 -220 -9z"/>
<path d="M4990 3400 l0 -220 220 0 220 0 0 220 0 220 -220 0 -220 0 0 -220z"/>
</g>
</svg>
