<svg id="Layer_1" data-name="Layer 1" xmlns="http://www.w3.org/2000/svg" viewBox="0 0 110.3 120.94"><defs><style>.cls-1{fill:none;stroke:#000;stroke-miterlimit:10;stroke-width:3px;}</style></defs><title>icon</title><path class="cls-1" d="M49.89,83.59c-.06-3.29-.13-6.58-.19-9.87a15.94,15.94,0,0,1-3.42-2.21,18,18,0,0,1-5.82-10.73A20.45,20.45,0,0,1,43,47c4.2-6.91,11.31-8.83,14.22-9.62,2-.55,10.87-2.94,19.53,2,1.83,1.06,8.34,4.8,10.44,12.77a20.39,20.39,0,0,1-2,14.81,21.89,21.89,0,0,1-10.79,9.44,25.67,25.67,0,0,1-15.24,1.71L49.9,84.61Z"/></svg>