<svg id="Layer_1" data-name="Layer 1" xmlns="http://www.w3.org/2000/svg" viewBox="0 0 110.3 120.94"><defs><style>.cls-1{stroke:#000;stroke-miterlimit:10;stroke-width:2px;}</style></defs><title>icon</title><path class="cls-1" d="M59.62,78.41c0-2.46,0-4.65,0-6.83.06-1.78-.75-2.43-2.49-2.56-6.4-.48-6.39-.53-6.51,6,0,1.08-.1,2.15-.17,3.45H38.67V61.61c-.82.44-1.13.73-1.47.77-.78.07-1.57,0-2.36,0,.15-.79,0-1.8.5-2.32,4.28-4.84,8.67-9.58,13-14.36,1.54-1.69,3-3.41,4.57-5.1,1.26-1.39,2.57-1.37,3.84,0C62.88,47.14,69,53.67,75.09,60.26c.41.44.26,1.38.37,2.09H71.71V78.41Z"/></svg>