<svg id="Layer_1" data-name="Layer 1" xmlns="http://www.w3.org/2000/svg" viewBox="0 0 110.3 120.94"><defs><style>.cls-1{stroke:#000;stroke-miterlimit:10;stroke-width:2px;}</style></defs><title>icon</title><path class="cls-1" d="M59.12,80.68a100.66,100.66,0,0,1-14.55-13,54.38,54.38,0,0,1-8.3-11.52,16.61,16.61,0,0,1-1.93-4.56c-.87-4-.32-10.63,4.86-13.88,4-2.53,8.66-1.58,9.89-1.27,7.46,1.84,10,9.16,10.14,9.7a14.86,14.86,0,0,1,6.14-7.82,12.89,12.89,0,0,1,6.13-2.06,13.31,13.31,0,0,1,8.42,2.54c3.91,3.07,5.32,8.69,3.45,14.07A35.45,35.45,0,0,1,81.21,58a41.11,41.11,0,0,1-7.33,9.83A108.84,108.84,0,0,1,59.12,80.68Z"/></svg>