<svg id="Layer_1" data-name="Layer 1" xmlns="http://www.w3.org/2000/svg" viewBox="0 0 110.3 120.94"><defs><style>.cls-1{stroke:#000;stroke-miterlimit:10;stroke-width:2px;}</style></defs><title>icon</title><path class="cls-1" d="M63.77,65.84c1.92,0,3.5,0,5.08,0,2.1.06,2.85.94,1.43,2.77-3.74,4.8-7.41,9.66-11.35,14.3s-4.15,4.63-7.93-.16c-3.64-4.63-7.29-9.25-10.89-13.91-.44-.56-1-1.74-.77-2a3.69,3.69,0,0,1,2.22-1c1.47-.15,3,0,4.81,0,0-5.05.11-9.91,0-14.76-.08-2.43.59-3.42,3.18-3.29,3.89.2,7.79.12,11.68,0,2-.05,2.65.69,2.61,2.63C63.71,55.42,63.77,60.41,63.77,65.84Z"/></svg>