<svg id="Layer_1" data-name="Layer 1" xmlns="http://www.w3.org/2000/svg" viewBox="0 0 110.3 120.94"><defs><style>.cls-1{stroke:#000;stroke-miterlimit:10;stroke-width:2px;}</style></defs><title>icon</title><path class="cls-1" d="M49.07,66.74a14.86,14.86,0,0,1-14.76-15c0-8.7,6.39-15.67,14.5-15.69,7.89,0,14.47,6.89,14.51,15.24C63.35,59.84,57,66.7,49.07,66.74Zm-.34-28.26c-6.32.11-12.18,6.53-12,13.16.18,6.91,6,12.87,12.42,12.69C55.71,64.15,61.13,58,60.9,51,60.67,44.24,55,38.38,48.73,38.48Z"/><path class="cls-1" d="M28.73,78.5c9.78-8.25,37.37-7.56,39.41.9C55,73,42,73.2,28.73,78.5Z"/><circle class="cls-1" cx="48.44" cy="51.41" r="13.11"/></svg>