<svg id="Layer_1" data-name="Layer 1" xmlns="http://www.w3.org/2000/svg" viewBox="0 0 110.3 120.94"><defs><style>.cls-1{stroke:#000;stroke-miterlimit:10;stroke-width:4px;}</style></defs><title>icon</title><path class="cls-1" d="M62.68,63.92C67,68.44,71.16,72.8,75.33,77.15l-.81.95a9.5,9.5,0,0,1-2.22-1.29c-3.66-3.74-7.24-7.56-10.9-11.4-4.3,3.14-8.59,4.86-13.38,4.08a16.18,16.18,0,0,1-10.4-6.33c-4-5.13-3.34-14.57,1-19.25,6-6.57,14.93-6.92,20.88-2.47C66.06,46.4,68.48,54.76,62.68,63.92Zm-12.31,4A14,14,0,0,0,64.2,54.13c0-7.37-6.2-13.84-13.38-13.92-7.56-.08-14.28,6.32-14.31,13.63A14,14,0,0,0,50.37,67.89Z"/></svg>