<svg id="Layer_1" data-name="Layer 1" xmlns="http://www.w3.org/2000/svg" viewBox="0 0 110.3 120.94"><defs><style>.cls-1{stroke:#000;stroke-miterlimit:10;stroke-width:2px;}</style></defs><title>icon</title><path class="cls-1" d="M57.63,63.25c0-3.39-.1-6.79,0-10.18s1.61-6.12,5.59-5.55a18.79,18.79,0,0,0,5.08,0c3.9-.49,5.3,2.17,5.37,4.83q.28,10.77,0,21.55c-.09,3.78-1.41,4.78-5.14,4.78h-6c-3.76,0-4.85-1.05-4.92-5C57.58,70.23,57.63,66.74,57.63,63.25ZM72,63.5c0-3.29.07-6.58,0-9.86-.1-3.73-.73-4.3-4.35-4.33-1.59,0-3.19.08-4.78,0-2.31-.17-3.42,1.09-3.44,3.12-.1,7.18-.08,14.35,0,21.53,0,2,.95,3.29,3.35,3a31.58,31.58,0,0,1,5.67,0c2.72.21,3.52-1.33,3.56-3.6C72.05,70.08,72,66.79,72,63.5Z"/><path class="cls-1" d="M51.19,62.47c-.24,4.16-.41,8.32-.73,12.46-.19,2.38-1.55,3.4-4,3.21a37.64,37.64,0,0,0-6.88,0C36.62,78.46,35,77,35,74.42c-.16-7.78-.21-15.57.06-23.34.1-2.68,1.85-4.48,5-4.14a22,22,0,0,0,5.38,0c3.45-.52,5.32,1.59,5.48,5.36.14,3.38,0,6.78,0,10.17Zm-2,.51h0c0-3.4.09-6.79,0-10.18s-.81-4.09-4.28-4.11c-1.6,0-3.2.09-4.79,0-2.5-.19-3.5,1.22-3.52,3.37-.08,7,0,14,0,21,0,2.26.84,3.76,3.57,3.41a22.13,22.13,0,0,1,5.08,0c3,.32,3.94-1.25,4-3.84C49.25,69.36,49.23,66.17,49.23,63Z"/><path class="cls-1" d="M37.54,48.17a4.45,4.45,0,0,0-1.44,1.66,5.11,5.11,0,0,0-.39,3c.6,4.3,0,8.68.22,13A63,63,0,0,1,36.1,75a1.84,1.84,0,0,0,.25,1.23,2.68,2.68,0,0,0,2,.85c6.46.46,8.76,1.41,10.3-.34a4.08,4.08,0,0,0,.77-1.4c1.37-3.81.72-6.95.55-11.83-.12-3.58-.43-7.15-.42-10.73a5.09,5.09,0,0,0-1-3.66c-.36-.38-.94-.81-5.19-1.27S38.35,47.62,37.54,48.17Z"/><path class="cls-1" d="M60.28,48.57a4.52,4.52,0,0,0-1.45,1.66,5.09,5.09,0,0,0-.38,3c.59,4.3,0,8.69.21,13a60.28,60.28,0,0,1,.17,9.11,1.93,1.93,0,0,0,.26,1.23,2.62,2.62,0,0,0,2,.85c6.45.47,8.76,1.41,10.3-.34a3.74,3.74,0,0,0,.76-1.4c1.38-3.81.73-6.94.56-11.83-.13-3.58-.44-7.15-.43-10.72a5.08,5.08,0,0,0-1-3.66c-.36-.39-.94-.82-5.19-1.28S61.08,48,60.28,48.57Z"/></svg>