<svg id="Layer_1" data-name="Layer 1" xmlns="http://www.w3.org/2000/svg" viewBox="0 0 110.3 120.94"><defs><style>.cls-1{fill:none;stroke:#000;stroke-miterlimit:10;stroke-width:2px;}</style></defs><title>icon</title><path class="cls-1" d="M58.44,65c0-3.39-.1-6.79,0-10.18s1.6-6.12,5.59-5.55a18.79,18.79,0,0,0,5.08,0c3.89-.49,5.29,2.17,5.36,4.83q.28,10.77,0,21.54c-.1,3.79-1.41,4.78-5.15,4.79-2,0-4,0-6,0-3.76,0-4.84-1-4.92-5C58.4,72,58.45,68.47,58.44,65Z"/><path class="cls-1" d="M51.75,65.29c0,.83-.07,7.2-.48,11.37a3.68,3.68,0,0,1-1,2.45,3.87,3.87,0,0,1-3,.76,37.64,37.64,0,0,0-6.88,0c-2.94.3-4.53-1.12-4.59-3.74-.16-7.78-.2-15.57.07-23.34.09-2.68,1.85-4.48,5-4.15a21.52,21.52,0,0,0,5.38,0c3.46-.52,5.33,1.59,5.48,5.35.14,3.39,0,6.79,0,10.18Z"/></svg>