<svg id="Layer_1" data-name="Layer 1" xmlns="http://www.w3.org/2000/svg" viewBox="0 0 110.3 120.94"><defs><style>.cls-1{stroke:#000;stroke-miterlimit:10;}</style></defs><title>icon</title><path class="cls-1" d="M56.68,78.22c-3,0-6,.11-9-.07-.81-.05-1.57-1-2.35-1.49.73-.48,1.45-1.36,2.18-1.37q9-.18,17.91,0c.69,0,1.36,1,2,1.5-.73.47-1.44,1.32-2.19,1.36C62.46,78.32,59.56,78.22,56.68,78.22Z"/><path class="cls-1" d="M56.41,70.42c-3,0-6,.09-8.95-.07-.72,0-1.39-1-2.09-1.47.72-.48,1.43-1.38,2.16-1.39q9-.18,17.91,0c.7,0,1.38,1,2.08,1.47-.72.48-1.42,1.35-2.16,1.39C62.39,70.51,59.4,70.42,56.41,70.42Z"/><path class="cls-1" d="M56.15,62c-2.89,0-5.78.1-8.66-.07-.73,0-1.41-.93-2.12-1.43.71-.5,1.41-1.42,2.13-1.43,6-.12,11.94-.12,17.9,0,.72,0,1.42.93,2.12,1.43-.71.5-1.39,1.39-2.12,1.43C62.32,62.11,59.23,62,56.15,62Z"/></svg>