<svg id="Layer_1" data-name="Layer 1" xmlns="http://www.w3.org/2000/svg" viewBox="0 0 110.3 120.94"><defs><style>.cls-1{fill:none;stroke:#000;stroke-miterlimit:10;stroke-width:3px;}</style></defs><title>icon</title><path class="cls-1" d="M55.17,82.67A101.42,101.42,0,0,1,40.62,69.76a53.78,53.78,0,0,1-8.3-11.46,16.66,16.66,0,0,1-1.93-4.53c-.87-4-.31-10.57,4.86-13.8,4-2.52,8.66-1.57,9.9-1.27,7.45,1.83,10,9.11,10.13,9.65a14.81,14.81,0,0,1,6.14-7.78,13,13,0,0,1,6.13-2A13.51,13.51,0,0,1,76,41.05c3.91,3.05,5.31,8.64,3.44,14a34.87,34.87,0,0,1-2.16,5.11,40.68,40.68,0,0,1-7.33,9.78A108,108,0,0,1,55.17,82.67Z"/></svg>