<svg id="Layer_1" data-name="Layer 1" xmlns="http://www.w3.org/2000/svg" viewBox="0 0 110.3 120.94"><defs><style>.cls-1{fill:none;stroke:#000;stroke-miterlimit:10;stroke-width:2px;}</style></defs><title>icon</title><path class="cls-1" d="M59.62,77.7c0-2.47,0-4.65,0-6.84.06-1.78-.75-2.43-2.49-2.56-6.4-.48-6.39-.52-6.51,6,0,1.07-.1,2.15-.17,3.45H38.67V60.9c-.82.44-1.13.73-1.47.76-.78.07-1.57,0-2.36,0,.15-.78,0-1.8.5-2.32,4.28-4.83,8.67-9.58,13-14.36,1.54-1.68,3-3.41,4.57-5.1,1.26-1.39,2.57-1.37,3.84,0C62.88,46.43,69,53,75.09,59.55c.41.43.26,1.38.37,2.09H71.71V77.7Z"/></svg>