<svg id="Layer_1" data-name="Layer 1" xmlns="http://www.w3.org/2000/svg" viewBox="0 0 110.3 120.94"><defs><style>.cls-1{fill:none;stroke:#000;stroke-miterlimit:10;stroke-width:2px;}</style></defs><title>icon</title><path class="cls-1" d="M67.26,59.27c1.92,0,3.5,0,5.08,0,2.11,0,2.85.94,1.43,2.77-3.74,4.79-7.41,9.66-11.35,14.3s-4.15,4.63-7.93-.16c-3.64-4.63-7.29-9.25-10.88-13.91-.44-.57-1-1.74-.78-2a3.67,3.67,0,0,1,2.23-1c1.46-.14,3,0,4.8,0,0-5.05.11-9.91,0-14.76-.08-2.44.6-3.43,3.19-3.29,3.88.2,7.78.12,11.68,0,2-.05,2.64.69,2.6,2.63C67.2,48.85,67.26,53.84,67.26,59.27Z"/></svg>