<?xml version="1.0" standalone="no"?>
<!DOCTYPE svg PUBLIC "-//W3C//DTD SVG 20010904//EN"
 "http://www.w3.org/TR/2001/REC-SVG-20010904/DTD/svg10.dtd">
<svg version="1.0" xmlns="http://www.w3.org/2000/svg"
 width="512.000000pt" height="512.000000pt" viewBox="0 0 512.000000 512.000000"
 preserveAspectRatio="xMidYMid meet">

<g transform="translate(0.000000,512.000000) scale(0.100000,-0.100000)"
fill="#000000" stroke="none">
<path d="M3230 5113 c-331 -33 -627 -147 -890 -342 -107 -79 -294 -270 -370
-378 -338 -482 -414 -1083 -206 -1635 l35 -93 -899 -900 -900 -900 0 -433 0
-432 433 0 432 0 138 138 137 137 0 163 0 162 163 0 162 0 173 173 172 172 0
143 0 142 142 0 143 0 285 285 285 284 93 -35 c209 -78 402 -114 627 -114 288
0 509 52 770 181 848 417 1204 1447 794 2299 -264 549 -777 913 -1381 979 -91
10 -259 12 -338 4z m674 -823 c178 -55 331 -211 388 -395 32 -101 30 -242 -5
-348 -98 -302 -410 -469 -719 -386 -137 37 -272 140 -347 264 -48 80 -81 199
-81 296 0 106 14 169 62 267 81 171 256 296 453 326 54 8 187 -5 249 -24z"/>
<path d="M3665 4011 c-84 -21 -159 -81 -197 -156 -30 -57 -35 -158 -13 -226
25 -73 101 -149 174 -174 69 -23 169 -17 228 13 170 87 211 310 84 455 -60 68
-192 110 -276 88z"/>
</g>
</svg>
