<svg id="a328350d-8a16-4d11-ac51-85b1bb274b3e" data-name="Capa 1" xmlns="http://www.w3.org/2000/svg" viewBox="0 0 512 512"><title>new</title><path d="M256,0C114.52,0,0,114.5,0,256S114.5,512,256,512,512,397.5,512,256,397.5,0,256,0Zm0,481.88C131.45,481.88,30.12,380.55,30.12,256S131.45,30.12,256,30.12,481.88,131.45,481.88,256,380.55,481.88,256,481.88Z"/><path d="M280,114"/><polygon points="61 324 241 167 248 162 256 158 268 158 276 158 286 158 286 165 286 175 286 226 375 152 315 152 314 124 432 124 420 242 386 241 390 189 256 301 242 301 240 224 77 361.59 61 324"/></svg>