<svg id="3be54150-59c5-4e22-ba1f-8bb81ad27cea" data-name="a2da69fe-22bc-4073-a4e4-c71d62fdd271" xmlns="http://www.w3.org/2000/svg" viewBox="0 0 512.75 512.75"><defs><style>.\30 a12aa6a-3c17-4dc1-b404-34cbf948a71f{stroke:#000;stroke-miterlimit:10;stroke-width:0.75px;}</style></defs><title>profile_fill</title><path class="0a12aa6a-3c17-4dc1-b404-34cbf948a71f" d="M471.77,325.38c-17-14.91-37.55-27.79-61.17-38.29-6.59-2.92-41.71-12.77-66.55-16.44-9,22.63-38.65,79.15-81.22,81.35-53.91,2.78-96.29-81.49-95-83.56s39.49,37.47,92,35c51.63-2.43,85.55-43.89,87-42,.2.27-.21,2-1.2,4.89a147.85,147.85,0,0,0,58.71-117.95c0-81.61-66.39-148-148-148s-148,66.39-148,148a147.83,147.83,0,0,0,57.85,117.29C101.9,279.81,61.89,307,41,325.38a119.75,119.75,0,0,0-40.61,90v37a60.07,60.07,0,0,0,60,60h392a60.07,60.07,0,0,0,60-60v-37A119.75,119.75,0,0,0,471.77,325.38ZM472.38,437v15.36C472.38,460.65,467.35,467.75,472.38,437Z" transform="translate(0 -0.01)"/></svg>