<svg id="314edbd1-1097-4714-8e98-da294e6b6f49" data-name="Layer 1" xmlns="http://www.w3.org/2000/svg" viewBox="0 0 540 540"><defs><style>.e85fc765-009d-4344-96cb-85895b412ab2{stroke:#000;stroke-miterlimit:10;stroke-width:28px;}</style></defs><title>profile_thick</title><path class="e85fc765-009d-4344-96cb-85895b412ab2" d="M471.39,325c-17-14.91-37.55-27.79-61.17-38.29A20,20,0,0,0,394,323.28c19.92,8.85,37.08,19.54,51,31.78A79.75,79.75,0,0,1,472,415v37a20,20,0,0,1-20,20H60a20,20,0,0,1-20-20V415a79.75,79.75,0,0,1,27-59.94C87.22,337.3,146.1,296,256,296c81.61,0,148-66.39,148-148S337.61,0,256,0,108,66.39,108,148a147.83,147.83,0,0,0,57.85,117.29C101.52,279.43,61.51,306.65,40.61,325A119.75,119.75,0,0,0,0,415v37a60.07,60.07,0,0,0,60,60H452a60.07,60.07,0,0,0,60-60V415A119.75,119.75,0,0,0,471.39,325ZM148,148A108,108,0,1,1,256,256,108.12,108.12,0,0,1,148,148Z" transform="translate(14 14)"/></svg>