<?xml version="1.0" standalone="no"?>
<!DOCTYPE svg PUBLIC "-//W3C//DTD SVG 20010904//EN"
 "http://www.w3.org/TR/2001/REC-SVG-20010904/DTD/svg10.dtd">
<svg version="1.0" xmlns="http://www.w3.org/2000/svg"
 width="300.000000pt" height="300.000000pt" viewBox="0 0 300.000000 300.000000"
 preserveAspectRatio="xMidYMid meet">
<metadata>
Created by potrace 1.10, written by Peter Selinger 2001-2011
</metadata>
<g transform="translate(0.000000,300.000000) scale(0.100000,-0.100000)"
fill="#000000" stroke="none">
<path d="M1090 2974 c-182 -26 -298 -61 -433 -131 -447 -231 -710 -725 -647
-1219 66 -531 463 -951 989 -1049 106 -19 312 -20 422 0 133 23 260 68 366
131 l33 19 307 -307 308 -308 110 0 c93 0 115 3 140 20 17 11 36 20 43 20 25
0 92 51 117 88 14 21 30 63 37 93 9 45 8 64 -7 114 -17 59 -24 67 -325 370
l-308 310 47 90 c174 335 177 753 8 1090 -177 355 -516 602 -907 661 -86 13
-237 17 -300 8z m303 -598 c116 -32 184 -73 283 -171 116 -115 177 -243 190
-404 23 -274 -144 -546 -399 -649 -63 -25 -71 -28 -162 -43 -126 -22 -296 14
-424 90 -40 23 -96 70 -133 110 -272 294 -227 740 99 974 152 110 357 145 546
93z"/>
</g>
</svg>
