<svg id="7a056e56-66a7-45c9-8a48-41c3bbb1e3cc" data-name="37ca4842-a41a-4589-81de-afe60580fcb2" xmlns="http://www.w3.org/2000/svg" viewBox="0 0 512 512"><title>trendfollow2</title><path d="M823.25,823.25"/><path d="M256,0C114.52,0,0,114.5,0,256S114.5,512,256,512,512,397.5,512,256,397.5,0,256,0ZM405.53,257.65l-25.64-8.79,13.46-43.51L266.06,296.63l-12.23-.42-3.66-.31L243,227.14,80.8,340.22,66.61,311.89l17.8-14.79L238.18,182.7l8.42-5.33,7.57-2.38,11.57,1,7.62.64,4.22,4.57,6.86,64.52,92.23-68.28-51.18-4.28,2.26-27,107.23,9Z"/></svg>