<svg id="Capa_1" data-name="Capa 1" xmlns="http://www.w3.org/2000/svg" viewBox="0 0 512 512"><defs><style>.cls-1,.cls-2,.cls-3,.cls-4{fill:none;}.cls-2,.cls-3,.cls-4{stroke:#000;stroke-miterlimit:10;}.cls-2{stroke-width:18px;}.cls-3{stroke-width:3px;}.cls-4{stroke-width:31px;}</style></defs><title>trend_follow1</title><path d="M256.33,0C114.85,0,.33,114.5.33,256s114.5,256,256,256,256-114.5,256-256S397.83,0,256.33,0Zm0,481.88C131.78,481.88,30.45,380.55,30.45,256S131.78,30.12,256.33,30.12,482.21,131.45,482.21,256,380.88,481.88,256.33,481.88Z" transform="translate(-0.33 0)"/><line class="cls-1" x1="61.07" y1="337.18" x2="241.54" y2="213.82"/><path class="cls-2" d="M72.66,329.49" transform="translate(-0.33 0)"/><path class="cls-3" d="M433,247" transform="translate(-0.33 0)"/><line class="cls-4" x1="76.41" y1="345.22" x2="255.67" y2="196.09"/><line class="cls-4" x1="255.03" y1="289.1" x2="254.67" y2="185.09"/><line class="cls-4" x1="395.62" y1="149.89" x2="255.26" y2="281.59"/><line class="cls-4" x1="393.75" y1="226.09" x2="398.99" y2="130.06"/><line class="cls-4" x1="306.63" y1="156.53" x2="410.99" y2="133.06"/></svg>