<svg id="37ca4842-a41a-4589-81de-afe60580fcb2" data-name="Capa 1" xmlns="http://www.w3.org/2000/svg" viewBox="0 0 512 512"><defs><style>.f905476c-a57a-403c-9742-1530cce04312{fill:none;}</style></defs><title>trendfollow</title><path d="M256,0C114.52,0,0,114.5,0,256S114.5,512,256,512,512,397.5,512,256,397.5,0,256,0Zm0,481.88C131.45,481.88,30.12,380.55,30.12,256S131.45,30.12,256,30.12,481.88,131.45,481.88,256,380.55,481.88,256,481.88Z"/><path d="M280,114"/><path d="M823.25,823.25"/><line class="f905476c-a57a-403c-9742-1530cce04312" x1="79.67" y1="286.33" x2="252.33" y2="171.67"/><polygon points="84.41 297.1 238.18 182.7 246.6 177.37 254.17 174.99 265.74 175.96 273.36 176.6 277.58 181.17 284.44 245.69 376.67 177.41 325.49 173.13 327.75 146.17 434.98 155.15 405.53 257.65 379.89 248.86 393.35 205.35 266.06 296.63 253.83 296.21 250.17 295.9 243.05 227.14 80.8 340.22 66.61 311.89 84.41 297.1"/></svg>